<svg xmlns="http://www.w3.org/2000/svg" width="28.571" height="20" viewBox="0 0 28.571 20"><defs><style>.a{fill:#434a54;}</style></defs><path class="a" d="M30.143,7.5H4.429A1.429,1.429,0,0,0,3,8.929v5.714H4.276A2.965,2.965,0,0,1,7.248,17.02a2.859,2.859,0,0,1-2.819,3.337H3v5.714A1.429,1.429,0,0,0,4.429,27.5H30.143a1.429,1.429,0,0,0,1.429-1.429V20.357H30.143a2.859,2.859,0,0,1-2.819-3.337A2.965,2.965,0,0,1,30.3,14.643h1.276V8.929A1.429,1.429,0,0,0,30.143,7.5ZM13,13.214a1.429,1.429,0,1,1-1.429,1.429A1.429,1.429,0,0,1,13,13.214Zm-1.143,9.143,8.571-11.429,2.286,1.714L14.143,24.071l-2.286-1.714Zm9.714-.571A1.429,1.429,0,1,1,23,20.357,1.429,1.429,0,0,1,21.571,21.786Z" transform="translate(-3 -7.5)"/></svg>