<svg xmlns="http://www.w3.org/2000/svg" width="45" height="45" viewBox="0 0 45 45"><defs><style>.a{fill:#fff;stroke:#e0e0e0;}.b{stroke:none;}.c{fill:none;}</style></defs><g transform="translate(-16 -72)"><g class="a" transform="translate(16 72)"><rect class="b" width="45" height="45" rx="10"/><rect class="c" x="0.5" y="0.5" width="44" height="44" rx="9.5"/></g><path d="M15.216,11.51a.918.918,0,0,1,.007,1.294l-4.268,4.282H27.218a.914.914,0,0,1,0,1.828H10.955L15.23,23.2a.925.925,0,0,1-.007,1.294.91.91,0,0,1-1.287-.007L8.142,18.647a1.03,1.03,0,0,1-.19-.288.878.878,0,0,1-.07-.352.916.916,0,0,1,.26-.64l5.794-5.836a.9.9,0,0,1,1.28-.021Z" transform="translate(20.118 76.749)"/></g></svg>