<svg xmlns="http://www.w3.org/2000/svg" width="32.5" height="32.5" viewBox="0 0 32.5 32.5">
  <defs>
    <style>
      .cls-1 {
        fill: #959595;
      }
    </style>
  </defs>
  <g id="Group_8876" data-name="Group 8876" transform="translate(2289 546)">
    <path id="Path_9026" data-name="Path 9026" class="cls-1" d="M908.835,593.638H883.153a3.42,3.42,0,0,0-3.409,3.409v25.682a3.419,3.419,0,0,0,3.409,3.409h25.682a3.419,3.419,0,0,0,3.409-3.409V597.047A3.42,3.42,0,0,0,908.835,593.638Zm1.267,28.593A1.77,1.77,0,0,1,908.337,624H883.651a1.77,1.77,0,0,1-1.765-1.765V597.545a1.77,1.77,0,0,1,1.765-1.765h24.686a1.77,1.77,0,0,1,1.765,1.765Z" transform="translate(-3168.744 -1139.638)"/>
    <path id="copy-solid" class="cls-1" d="M12.926,3.231V0H9.156A1.616,1.616,0,0,0,7.54,1.616V11.31a1.616,1.616,0,0,0,1.616,1.616h6.463a1.616,1.616,0,0,0,1.616-1.616v-7h-3.2A1.087,1.087,0,0,1,12.926,3.231ZM14,0V3.231h3.231ZM6.463,11.848V4.309H1.616A1.616,1.616,0,0,0,0,5.924v9.694a1.616,1.616,0,0,0,1.616,1.616H8.078a1.616,1.616,0,0,0,1.616-1.616V14H8.617A2.156,2.156,0,0,1,6.463,11.848Z" transform="translate(-2281 -538)"/>
  </g>
</svg>
