<svg xmlns="http://www.w3.org/2000/svg" width="15.5" height="15.5" viewBox="0 0 15.5 15.5"><g transform="translate(0 0)"><path d="M15.1,5.036,10.464.4A1.364,1.364,0,0,0,8.538.4L2.719,6.217H1.362A1.364,1.364,0,0,0,0,7.58v6.558A1.364,1.364,0,0,0,1.362,15.5H11.8a1.364,1.364,0,0,0,1.362-1.362V8.906L15.1,6.962A1.364,1.364,0,0,0,15.1,5.036ZM9.18,1.041a.455.455,0,0,1,.642,0L12.212,3.43,9.424,6.217H4Zm3.07,13.1a.455.455,0,0,1-.454.454H1.362a.455.455,0,0,1-.454-.454V7.58a.455.455,0,0,1,.454-.454H11.8a.455.455,0,0,1,.454.454ZM11.98,6.23a1.368,1.368,0,0,0-.185-.013H10.709l2.145-2.145.642.642Zm2.479.09-1.3,1.3V7.58a1.357,1.357,0,0,0-.342-.9l1.322-1.322.321.321a.455.455,0,0,1,0,.642Z" transform="translate(0 0)"/><path d="M60,406.574h1.657v.891H60Z" transform="translate(-58.219 -394.203)"/><path d="M146.267,406.574h1.657v.891h-1.657Z" transform="translate(-141.828 -394.203)"/><path d="M232.534,406.574h1.657v.891h-1.657Z" transform="translate(-225.477 -394.203)"/><path d="M318.8,406.574h1.657v.891H318.8Z" transform="translate(-309.127 -394.203)"/><path d="M63.007,280.766H60v2.672h3.007Zm-.891,1.781H60.891v-.891h1.225Z" transform="translate(-58.219 -272.231)"/></g></svg>