<svg xmlns="http://www.w3.org/2000/svg" width="26" height="26.261" viewBox="0 0 26 26.261"><defs><style>.a{fill:#a2a5ad;}</style></defs><g transform="translate(-732.355 -204.249)"><path class="a" d="M740.678,218.776c-.5-.59-.982-1.136-1.445-1.7a7.873,7.873,0,1,1,13.76-6.831,7.729,7.729,0,0,1-1.736,7.1c-.392.462-.791.918-1.222,1.419.157.008.263.019.369.019q1.005,0,2.01,0a.723.723,0,0,1,.707.43q2.566,5.139,5.135,10.276c.273.547-.038,1.008-.678,1.01-1.432.006-2.863,0-4.295,0H733.333c-.091,0-.183,0-.274,0a.656.656,0,0,1-.6-1.017c.662-1.334,1.331-2.664,2-4,1.033-2.065,2.07-4.128,3.094-6.2a.828.828,0,0,1,.843-.514c.649.015,1.3.006,1.949.006C740.435,218.79,740.531,218.782,740.678,218.776ZM756.62,229.2c-.026-.071-.042-.127-.068-.179q-2.176-4.353-4.35-8.707a.306.306,0,0,0-.325-.2c-.914.008-1.828.01-2.742,0a.54.54,0,0,0-.461.221q-1.365,1.6-2.745,3.184a.674.674,0,0,1-1.136.021c-.931-1.074-1.854-2.155-2.792-3.223a.613.613,0,0,0-.4-.188c-.893-.017-1.787,0-2.68-.015a.429.429,0,0,0-.458.285q-2.109,4.25-4.236,8.492c-.048.1-.091.193-.146.31Zm-11.254-7.011c.054-.073.076-.107.1-.138,1.625-1.883,3.262-3.756,4.871-5.653a6.365,6.365,0,0,0,1.483-5.3,6.512,6.512,0,0,0-7.493-5.457,6.256,6.256,0,0,0-5.117,4.216,6.333,6.333,0,0,0,1.19,6.579c1.061,1.27,2.158,2.51,3.239,3.762C744.2,220.843,744.768,221.493,745.366,222.184Z"/><path class="a" d="M800.76,571.615q-1.888,0-3.776,0a.71.71,0,0,1-.741-.421.659.659,0,0,1,.493-.887,1.187,1.187,0,0,1,.242-.014q3.761,0,7.522,0c.452,0,.739.2.793.552a.666.666,0,0,1-.726.769c-1.1.006-2.193,0-3.289,0Z" transform="translate(-59.945 -343.7)"/><path class="a" d="M820.155,529.108c-.629,0-1.258,0-1.887,0a.642.642,0,0,1-.7-.6.618.618,0,0,1,.64-.693q1.963-.022,3.926,0a.613.613,0,0,1,.627.673.63.63,0,0,1-.686.618C821.433,529.111,820.794,529.108,820.155,529.108Z" transform="translate(-80.008 -303.806)"/><path class="a" d="M905.161,298.8a2.6,2.6,0,1,1,2.618-2.577A2.612,2.612,0,0,1,905.161,298.8Zm1.3-2.586a1.287,1.287,0,0,0-2.573-.043,1.287,1.287,0,1,0,2.573.043Z" transform="translate(-159.815 -83.899)"/></g></svg>