<svg xmlns="http://www.w3.org/2000/svg" width="32.5" height="32.5" viewBox="0 0 32.5 32.5">
  <g id="Group_8815" data-name="Group 8815" transform="translate(0)">
    <path id="Path_9023" data-name="Path 9023" d="M916.358,103.277V94.119h3.074l.461-3.57h-3.535V88.271c0-1.033.287-1.737,1.769-1.737h1.89V83.34a25.244,25.244,0,0,0-2.754-.141c-2.725,0-4.591,1.664-4.591,4.718v2.632H909.59v3.57h3.082v9.158Z" transform="translate(-899.031 -76.988)" fill="#959595"/>
    <path id="Path_9024" data-name="Path 9024" d="M908.835,65.644H883.153a3.419,3.419,0,0,0-3.409,3.409V94.734a3.42,3.42,0,0,0,3.409,3.41h25.682a3.419,3.419,0,0,0,3.409-3.41V69.053A3.419,3.419,0,0,0,908.835,65.644ZM910.1,94.237A1.77,1.77,0,0,1,908.337,96H883.651a1.77,1.77,0,0,1-1.765-1.765V69.551a1.77,1.77,0,0,1,1.765-1.765h24.686a1.77,1.77,0,0,1,1.765,1.765Z" transform="translate(-879.744 -65.644)" fill="#959595"/>
  </g>
</svg>
