<svg xmlns="http://www.w3.org/2000/svg" width="22" height="22.449" viewBox="0 0 22 22.449"><defs><style>.a{fill:#4285f4;}.b{fill:#34a853;}.c{fill:#fbbc05;}.d{fill:#eb4335;}</style></defs><path class="a" d="M141.368,109.065a9.656,9.656,0,0,0-.238-2.3H130.55v4.182h6.21a5.507,5.507,0,0,1-2.3,3.656l-.021.14,3.345,2.591.232.023a11.017,11.017,0,0,0,3.355-8.288" transform="translate(-119.368 -97.634)"/><path class="b" d="M23.991,165.41a10.74,10.74,0,0,0,7.462-2.729L27.9,159.926a6.669,6.669,0,0,1-3.906,1.127,6.784,6.784,0,0,1-6.41-4.683l-.132.011-3.478,2.692-.045.126a11.26,11.26,0,0,0,10.066,6.21" transform="translate(-12.723 -142.961)"/><path class="c" d="M4.858,78.654a6.937,6.937,0,0,1-.376-2.229A7.29,7.29,0,0,1,4.845,74.2l-.006-.149L1.317,71.312l-.115.055a11.245,11.245,0,0,0,0,10.116l3.656-2.83" transform="translate(0 -65.2)"/><path class="d" d="M23.942,4.357a6.2,6.2,0,0,1,4.336,1.678L31.443,2.93A10.745,10.745,0,0,0,23.942,0,11.2,11.2,0,0,0,13.925,6.21l3.626,2.83a6.782,6.782,0,0,1,6.392-4.683" transform="translate(-12.723)"/></svg>