<svg xmlns="http://www.w3.org/2000/svg" width="32.499" height="32.499" viewBox="0 0 32.499 32.499">
  <g id="Group_8812" data-name="Group 8812" transform="translate(0)">
    <path id="Path_9017" data-name="Path 9017" d="M903.234,479.037h3.287V489.6h-3.287Zm1.644-5.253a1.9,1.9,0,1,1-1.905,1.9,1.9,1.9,0,0,1,1.905-1.9m3.7,15.819h3.28v-5.227c0-1.378.261-2.713,1.97-2.713,1.683,0,1.707,1.576,1.707,2.8V489.6h3.28v-5.8c0-2.846-.614-5.034-3.937-5.034a3.451,3.451,0,0,0-3.108,1.707h-.044v-1.443h-3.148Z" transform="translate(-894.755 -465.548)" fill="#959595"/>
    <path id="Path_9018" data-name="Path 9018" d="M908.834,450.5H883.153a3.419,3.419,0,0,0-3.409,3.409v25.681A3.419,3.419,0,0,0,883.153,483h25.681a3.419,3.419,0,0,0,3.409-3.409V453.913A3.419,3.419,0,0,0,908.834,450.5ZM910.1,479.1a1.77,1.77,0,0,1-1.765,1.765H883.651a1.77,1.77,0,0,1-1.765-1.765V454.411a1.77,1.77,0,0,1,1.765-1.765h24.685a1.77,1.77,0,0,1,1.765,1.765Z" transform="translate(-879.744 -450.504)" fill="#959595"/>
  </g>
</svg>
