<svg xmlns="http://www.w3.org/2000/svg" width="26" height="22.75" viewBox="0 0 26 22.75">
  <path id="arrow-right-from-bracket-light" d="M25.761,42.8l-7.312-7.313A.812.812,0,0,0,17.3,36.637l5.927,5.925H8.937a.813.813,0,0,0,0,1.625h14.29L17.3,50.114a.812.812,0,0,0,1.149,1.149l7.312-7.312a.812.812,0,0,0,0-1.149ZM8.937,53.125H4.062a2.439,2.439,0,0,1-2.437-2.437V36.063a2.44,2.44,0,0,1,2.437-2.437H8.937a.813.813,0,0,0,0-1.625H4.062A4.067,4.067,0,0,0,0,36.063V50.688A4.067,4.067,0,0,0,4.062,54.75H8.937a.812.812,0,1,0,0-1.625Z" transform="translate(0 -32)" fill="#a2a5ad"/>
</svg>
