<svg xmlns="http://www.w3.org/2000/svg" width="26" height="23.147" viewBox="0 0 26 23.147"><defs><style>.a{fill:#a2a5ad;}</style></defs><g transform="translate(-634.639 -720.167)"><path class="a" d="M660.639,721.741v20.308a1.757,1.757,0,0,1-1.937,1.265q-11.1-.024-22.207-.009c-.093,0-.186,0-.279,0a1.553,1.553,0,0,1-1.577-1.625q0-1.789,0-3.578,0-8.005,0-16.01a1.846,1.846,0,0,1,1.582-1.878,1.009,1.009,0,0,0,.143-.047h22.548a1.457,1.457,0,0,0,.167.049,1.783,1.783,0,0,1,1.288.879A4.936,4.936,0,0,1,660.639,721.741Zm-24.986,4.368v.278q0,7.588,0,15.176c0,.541.167.706.715.706h22.541c.547,0,.714-.166.714-.707q0-7.588,0-15.176v-.277Zm23.971-1.051c0-.984,0-1.939,0-2.895a.853.853,0,0,0-.94-.946q-11.045,0-22.09,0a.852.852,0,0,0-.94.944q0,1.333,0,2.665c0,.073.009.146.014.231Z"/><path class="a" d="M758.916,872.508a7.031,7.031,0,1,1,7.044-7.028A7.053,7.053,0,0,1,758.916,872.508Zm-.011-1.034a6,6,0,1,0-5.978-6.015A5.989,5.989,0,0,0,758.9,871.474Z" transform="translate(-111.289 -131.243)"/><path class="a" d="M698.658,769.528c-.787,0-1.574,0-2.361,0a.547.547,0,0,1-.606-.394.5.5,0,0,1,.357-.609,1.124,1.124,0,0,1,.276-.029q2.323,0,4.646,0c.4,0,.617.165.639.466.026.34-.2.564-.591.567C700.233,769.531,699.446,769.528,698.658,769.528Z" transform="translate(-57.93 -45.867)"/><path class="a" d="M940.38,768.351a3.664,3.664,0,0,1,.416.03.468.468,0,0,1,.408.451.448.448,0,0,1-.354.514,4.128,4.128,0,0,1-.978,0,.458.458,0,0,1-.365-.508.5.5,0,0,1,.43-.463C940.078,768.356,940.223,768.359,940.38,768.351Z" transform="translate(-289.354 -45.732)"/><path class="a" d="M1064.513,769.593a3.129,3.129,0,0,1-.442-.04.479.479,0,0,1-.383-.521.462.462,0,0,1,.421-.462,4.83,4.83,0,0,1,.833,0,.468.468,0,0,1,.433.478.482.482,0,0,1-.4.511A3.5,3.5,0,0,1,1064.513,769.593Z" transform="translate(-407.218 -45.923)"/><path class="a" d="M1002.465,769.594a3.04,3.04,0,0,1-.439-.041.478.478,0,0,1-.382-.523.465.465,0,0,1,.425-.46,4.84,4.84,0,0,1,.834,0,.467.467,0,0,1,.431.48.482.482,0,0,1-.4.509A3.618,3.618,0,0,1,1002.465,769.594Z" transform="translate(-348.33 -45.923)"/><path class="a" d="M831.647,916.118a2.41,2.41,0,0,1,1.178,2.3c-.015.448,0,.9,0,1.345a.534.534,0,0,1-.612.6h-5.253a.533.533,0,0,1-.613-.6c0-.55-.013-1.1,0-1.649a2.321,2.321,0,0,1,1.185-2,2.639,2.639,0,0,1-.442-2.439,2.532,2.532,0,0,1,1.028-1.374,2.594,2.594,0,0,1,3.23.233C832.342,913.424,832.448,914.624,831.647,916.118Zm.141,3.222c0-.094,0-.161,0-.228,0-.364.009-.728-.01-1.091a1.2,1.2,0,0,0-.943-1.118.583.583,0,0,0-.315.01,2.731,2.731,0,0,1-1.886-.006.463.463,0,0,0-.243-.024,1.094,1.094,0,0,0-.931.83,12.722,12.722,0,0,0-.109,1.627Zm-.618-4.867a1.588,1.588,0,1,0-1.6,1.581A1.588,1.588,0,0,0,831.17,914.473Z" transform="translate(-181.944 -181.921)"/></g></svg>