<svg xmlns="http://www.w3.org/2000/svg" width="26" height="27.861" viewBox="0 0 26 27.861"><defs><style>.a{fill:#a2a5ad;}</style></defs><g transform="translate(420.748 -181.742)"><path class="a" d="M-416.106,183.6c0-.335-.005-.633,0-.93a.915.915,0,0,1,.942-.928.916.916,0,0,1,.912.926c0,.3,0,.6,0,.913h5.574c0-.3,0-.6,0-.9a.913.913,0,0,1,.925-.942.916.916,0,0,1,.928.94c0,.29,0,.58,0,.893h5.574c0-.281,0-.567,0-.853a.918.918,0,0,1,.946-.98.922.922,0,0,1,.909.987c0,.279,0,.557,0,.87h1.085a3.505,3.505,0,0,1,3.557,3.539q0,9.474,0,18.947a3.51,3.51,0,0,1-3.524,3.514q-9.458,0-18.916,0a3.506,3.506,0,0,1-3.557-3.568q0-9.459,0-18.918a3.51,3.51,0,0,1,3.524-3.514C-416.865,183.6-416.508,183.6-416.106,183.6Zm16.714,1.861c0,.309,0,.588,0,.867a.922.922,0,0,1-.914.984.923.923,0,0,1-.941-.987c0-.286,0-.572,0-.856h-5.574c0,.31,0,.608,0,.9a.916.916,0,0,1-.931.938.924.924,0,0,1-.925-.945c0-.3,0-.593,0-.892h-5.569c0,.3,0,.578,0,.857a.925.925,0,0,1-.917.982.929.929,0,0,1-.94-.989c0-.286,0-.572,0-.871h-.881a1.712,1.712,0,0,0-1.907,1.895q0,9.242,0,18.484a1.718,1.718,0,0,0,1.919,1.912l18.539,0a1.694,1.694,0,0,0,1.828-1.825q0-5.8,0-11.607,0-3.555,0-7.109a1.67,1.67,0,0,0-1.56-1.737C-398.558,185.434-398.956,185.462-399.392,185.462Z" transform="translate(0)"/><path class="a" d="M-192.92,373.445q1.6,0,3.2,0a.921.921,0,0,1,.979.92.919.919,0,0,1-.962.939q-3.224,0-6.448,0a.922.922,0,0,1-.964-.938.918.918,0,0,1,.976-.923C-195.069,373.443-193.994,373.445-192.92,373.445Z" transform="translate(-210.642 -180.559)"/><path class="a" d="M-192.947,519.073q-1.583,0-3.166,0a.928.928,0,0,1-1.007-.923.92.92,0,0,1,.992-.936q3.195,0,6.39,0a.925.925,0,0,1,.992.937.923.923,0,0,1-1.006.921Q-191.349,519.075-192.947,519.073Z" transform="translate(-210.641 -315.971)"/><path class="a" d="M-338.325,343.962c.72-.723,1.405-1.422,2.1-2.107a.925.925,0,0,1,1.589.448.846.846,0,0,1-.233.83c-.934.944-1.87,1.887-2.818,2.817a.9.9,0,0,1-1.3-.018q-.947-.925-1.873-1.869a.937.937,0,0,1-.011-1.31.939.939,0,0,1,1.331-.01C-339.136,343.132-338.747,343.537-338.325,343.962Z" transform="translate(-74.991 -150.528)"/><path class="a" d="M-338.3,487.755c.725-.726,1.409-1.409,2.09-2.1a.931.931,0,0,1,.893-.3.926.926,0,0,1,.488,1.562c-.473.5-.969.977-1.455,1.463-.424.425-.846.852-1.275,1.273a.926.926,0,0,1-1.432.006q-.888-.879-1.767-1.767a.948.948,0,0,1-.057-1.372.944.944,0,0,1,1.371.049C-339.064,486.954-338.694,487.347-338.3,487.755Z" transform="translate(-75.036 -285.953)"/></g></svg>