<svg xmlns="http://www.w3.org/2000/svg" width="26" height="25.973" viewBox="0 0 26 25.973"><defs><style>.a{fill:#a2a5ad;}</style></defs><path class="a" d="M-561.585,255.61c-.722-.72-1.422-1.416-2.12-2.113-.4-.4-.336-.766.182-1.011l9.606-4.554a.584.584,0,0,1,.832.146c.7.7,1.392,1.4,2.109,2.12.08-.075.148-.135.213-.2l1.93-1.929a.57.57,0,0,1,.809-.142q4.838,2.289,9.675,4.58a.538.538,0,0,1,.156.958q-.961.969-1.929,1.929a2.091,2.091,0,0,1-.227.173l-.049.126a1,1,0,0,1,.256.134q.972.957,1.932,1.926c.379.381.316.757-.164.988-.662.318-1.324.635-1.991.943a.31.31,0,0,0-.208.332c.006,2.642,0,5.284.008,7.926a.7.7,0,0,1-.423.7q-4.789,2.509-9.568,5.036a.758.758,0,0,1-.78.019q-4.769-2.522-9.549-5.025a.781.781,0,0,1-.479-.794c.014-2.616.006-5.232.012-7.848a.325.325,0,0,0-.218-.351c-.669-.3-1.33-.624-1.993-.94a.54.54,0,0,1-.162-.97q.972-.976,1.947-1.948C-561.721,255.759-561.665,255.7-561.585,255.61Zm10.091,5.963c-.57.571-1.094,1.1-1.621,1.623a.56.56,0,0,1-.769.131l-5.62-2.664c-.262-.124-.527-.244-.8-.372-.005.065-.01.1-.01.133,0,2.389,0,4.779-.008,7.168a.287.287,0,0,0,.2.289q4.164,2.188,8.326,4.379c.1.051.194.1.308.155Zm1.067.012v10.826c.069-.033.115-.054.16-.078q4.246-2.234,8.494-4.464a.289.289,0,0,0,.166-.308q0-3.04,0-6.08c0-.387,0-.774,0-1.2l-.353.164-6.043,2.861a.59.59,0,0,1-.852-.155Zm8.1-5.957c-.093-.052-.129-.075-.167-.093q-4.146-1.962-8.29-3.929a.424.424,0,0,0-.411.029l-8.123,3.85c-.079.038-.154.084-.258.142.125.065.208.111.293.151q4.038,1.914,8.075,3.831a.523.523,0,0,0,.5-.007q3.462-1.651,6.93-3.289Zm-7.731-4.847c.133.068.231.12.33.167l2.693,1.274q2.821,1.337,5.643,2.671c.077.036.222.053.267.009.576-.558,1.14-1.129,1.728-1.718-.1-.052-.176-.091-.252-.127l-3.84-1.822c-1.506-.714-3.015-1.425-4.518-2.147a.312.312,0,0,0-.442.08c-.186.216-.4.408-.6.61Zm-1.812,9.685c-.069-.04-.1-.064-.141-.082q-4.275-2.024-8.548-4.051a.23.23,0,0,0-.311.064c-.51.518-1.027,1.03-1.54,1.545-.034.034-.06.074-.1.125.113.057.2.105.3.149l3.067,1.453,5.267,2.5c.1.049.2.124.319,0C-553.016,261.6-552.455,261.047-551.872,260.464Zm12.468-2.4c-.071-.078-.119-.136-.172-.189-.483-.484-.972-.963-1.447-1.455a.29.29,0,0,0-.4-.07q-3.509,1.671-7.025,3.33c-.529.25-1.056.5-1.6.766.063.071.1.124.151.171.5.5,1,.986,1.483,1.492a.273.273,0,0,0,.378.054q3.512-1.67,7.028-3.331C-540.48,258.585-539.953,258.331-539.4,258.068Zm-23.146-4.882c.571.564,1.113,1.087,1.638,1.626a.306.306,0,0,0,.419.072q4.2-2,8.407-3.99c.066-.031.128-.072.208-.117-.554-.553-1.092-1.08-1.614-1.622a.3.3,0,0,0-.419-.073q-3.191,1.524-6.389,3.035Z" transform="translate(563.966 -247.82)"/></svg>