<svg xmlns="http://www.w3.org/2000/svg" width="26" height="15.159" viewBox="0 0 26 15.159"><defs><style>.a{fill:#a2a5ad;}</style></defs><g transform="translate(91.105 -1131.063)"><path class="a" d="M-65.105,1145.387c-.016.018-.039.034-.046.055a1.082,1.082,0,0,1-1.119.777c-2.471,0-4.942.006-7.413,0a1.081,1.081,0,0,1-1.169-1.2q0-1.952,0-3.9v-.3h-13.9a2.148,2.148,0,0,1-2.119-1.242,2.54,2.54,0,0,1-.217-1.025c-.021-1.724-.01-3.448-.01-5.172a2.174,2.174,0,0,1,2.247-2.311c.051,0,.1,0,.152,0q9.521,0,19.041,0a2.291,2.291,0,0,1,1.954.877,2.28,2.28,0,0,1,.442,1.448c0,.625,0,1.251,0,1.876a.489.489,0,0,0,.095.3,3.927,3.927,0,0,1,.989,2.82c0,.059,0,.118,0,.177a.506.506,0,0,0,.017.073,1.207,1.207,0,0,1,1.054.822Zm-3.249-10.694c0-.451,0-.856,0-1.261a1.131,1.131,0,0,0-1.276-1.281H-88.741a1.115,1.115,0,0,0-1.273,1.252c0,1.69.013,3.379-.006,5.069a1.161,1.161,0,0,0,1.253,1.251c4.543-.018,9.086-.009,13.629-.009h.268a1.136,1.136,0,0,1,1.024-1.087c.081-.531.162-1.044.231-1.559.007-.048-.058-.106-.114-.2-.125.51-.3.7-.592.7s-.484-.217-.555-.639c-.459.136-.7.086-.843-.177s-.072-.494.273-.821c-.333-.263-.427-.532-.275-.795s.408-.326.845-.172c.07-.432.2-.61.494-.627a.48.48,0,0,1,.332.068,3.7,3.7,0,0,1,.365.521c.53-.187.818.037.882.644a3.846,3.846,0,0,1,2.066-1.175A3.756,3.756,0,0,1-68.354,1134.694Zm2.137,10.434v-5.378h-7.526v5.378Zm-6.444-6.5H-67.3a2.726,2.726,0,0,0-1.245-2.8,2.521,2.521,0,0,0-2.845-.015A2.725,2.725,0,0,0-72.661,1138.629Z" transform="translate(0)"/><path class="a" d="M-44.66,1197.76c-.407.157-.673.109-.829-.14-.167-.268-.087-.525.262-.844q-.5-.4-.279-.794c.157-.277.413-.331.843-.176.086-.45.218-.612.518-.634.321-.024.454.1.631.609.458-.11.7-.047.837.215s.057.5-.246.747a3.678,3.678,0,0,1,.3.561.473.473,0,0,1-.092.327c-.15.245-.4.283-.74.16a4.644,4.644,0,0,1-.384.537.424.424,0,0,1-.308.069C-44.451,1198.37-44.591,1198.186-44.66,1197.76Z" transform="translate(-43.215 -60.844)"/><path class="a" d="M124.952,1196.929c-.346-.282-.429-.508-.292-.78s.382-.335.79-.228a3.743,3.743,0,0,1,.367-.525.48.48,0,0,1,.332-.068c.292.017.424.2.493.627.438-.153.686-.1.845.172s.058.532-.274.795c.349.336.424.577.261.843-.151.247-.391.292-.831.154-.074.426-.254.634-.553.641s-.472-.19-.568-.6a3.374,3.374,0,0,1-.607-.011.465.465,0,0,1-.248-.233C124.517,1197.451,124.6,1197.243,124.952,1196.929Z" transform="translate(-204.727 -60.994)"/><path class="a" d="M40.438,1197.728c-.39.157-.643.11-.8-.139-.177-.271-.1-.527.251-.842-.337-.284-.421-.523-.28-.793s.4-.331.838-.2c.122-.466.282-.635.6-.625s.451.176.545.592a3.324,3.324,0,0,1,.6.011c.095.018.193.136.247.233.151.273.056.51-.281.768.348.346.421.582.261.843s-.417.3-.827.147c-.036.352-.179.626-.573.644C40.726,1198.383,40.559,1198.184,40.438,1197.728Z" transform="translate(-123.997 -60.809)"/><path class="a" d="M303.751,1322.626a1.069,1.069,0,0,1,.7,1.88.622.622,0,0,0-.153.336c-.031.189,0,.388-.035.577a.531.531,0,0,1-.527.453.492.492,0,0,1-.506-.438,2.394,2.394,0,0,0-.438-1.292A1.031,1.031,0,0,1,303.751,1322.626Z" transform="translate(-373.726 -181.817)"/></g></svg>