<svg xmlns="http://www.w3.org/2000/svg" width="32.5" height="32.5" viewBox="0 0 32.5 32.5">
  <defs>
    <style>
      .cls-1 {
        fill: #959595;
      }
    </style>
  </defs>
  <g id="Group_8877" data-name="Group 8877" transform="translate(2289 495)">
    <path id="Path_9027" data-name="Path 9027" class="cls-1" d="M908.835,593.638H883.153a3.42,3.42,0,0,0-3.409,3.409v25.682a3.419,3.419,0,0,0,3.409,3.409h25.682a3.419,3.419,0,0,0,3.409-3.409V597.047A3.42,3.42,0,0,0,908.835,593.638Zm1.267,28.593A1.77,1.77,0,0,1,908.337,624H883.651a1.77,1.77,0,0,1-1.765-1.765V597.545a1.77,1.77,0,0,1,1.765-1.765h24.686a1.77,1.77,0,0,1,1.765,1.765Z" transform="translate(-3168.744 -1088.638)"/>
    <path id="pinterest" class="cls-1" d="M8.5,0A8.455,8.455,0,0,1,17,8.5,8.6,8.6,0,0,1,8.5,17a8.873,8.873,0,0,1-2.405-.349q.239-.385.477-.854a10.18,10.18,0,0,0,.661-2.111q.11-.45.312-1.184a1.849,1.849,0,0,0,.8.734,3.662,3.662,0,0,0,3.148-.128,5.189,5.189,0,0,0,2.387-3.066c.759-2.885-.22-5.659-2.837-6.775-3.155-.951-6.676.236-7.9,3.057C2.6,8.209,2.635,10.63,4.5,11.418a.334.334,0,0,0,.266,0,2.14,2.14,0,0,0,.34-1.148.692.692,0,0,0-.128-.229c-1.029-1.394-.4-3.468.56-4.507a4.456,4.456,0,0,1,5.682-.294c1.331,1.553,1.029,3.969.174,5.508a2.408,2.408,0,0,1-1.955,1.331A1.325,1.325,0,0,1,8.1,10.446a20.4,20.4,0,0,0,.753-3.011c-.043-.781-.434-1.276-1.156-1.285a2.042,2.042,0,0,0-1.634,2.2,3.4,3.4,0,0,0,.275,1.34q-.367,1.487-.569,2.4a26.565,26.565,0,0,0-.67,3.24q-.028.514-.009.955A8.579,8.579,0,0,1,0,8.5,8.546,8.546,0,0,1,8.5,0Z" transform="translate(-2281 -487)"/>
  </g>
</svg>
