<svg xmlns="http://www.w3.org/2000/svg" width="20" height="20" viewBox="0 0 20 20"><g transform="translate(-3.375 -3.375)"><path d="M13.375,4.721a8.65,8.65,0,1,1-6.12,2.534,8.6,8.6,0,0,1,6.12-2.534m0-1.346a10,10,0,1,0,10,10,10,10,0,0,0-10-10Z"/><path d="M16.613,11.25c1.8,0,3.045,1,3.045,2.439a2.353,2.353,0,0,1-1.352,2.136c-.837.486-1.121.842-1.121,1.458v.38H15.516l-.014-.414a2,2,0,0,1,1.135-2.117c.813-.486,1.155-.794,1.155-1.39A1.168,1.168,0,0,0,16.5,12.708a1.217,1.217,0,0,0-1.289,1.184H13.5C13.534,12.342,14.679,11.25,16.613,11.25ZM15.347,19.5a1.033,1.033,0,1,1,1.03.991A1.008,1.008,0,0,1,15.347,19.5Z" transform="translate(-3.204 -2.494)"/></g></svg>