<svg xmlns="http://www.w3.org/2000/svg" width="37.13" height="20" viewBox="0 0 37.13 20"><g transform="translate(-2147 -2229.388)"><g transform="translate(2161.03 2229.388)"><g transform="translate(0 4.331)"><g transform="translate(0 0)"><path d="M22.378,136.543a.717.717,0,0,0-.722.712v4.986H1.444v-8.547H9.384a.712.712,0,1,0,0-1.424H1.444V129.42H9.384a.712.712,0,1,0,0-1.424H1.444A1.435,1.435,0,0,0,0,129.42v12.82a1.435,1.435,0,0,0,1.444,1.424H21.656a1.435,1.435,0,0,0,1.444-1.424v-4.986A.717.717,0,0,0,22.378,136.543Z" transform="translate(0 -127.996)"/></g></g><g transform="translate(2.887 12.846)"><g transform="translate(0 0)"><path d="M67.609,320H64.722a.722.722,0,1,0,0,1.444h2.887a.722.722,0,0,0,0-1.444Z" transform="translate(-64 -319.996)"/></g></g><g transform="translate(11.55 0)"><path d="M267.112,34.227l-5.053-2.166a.737.737,0,0,0-.57,0l-5.053,2.166a.724.724,0,0,0-.436.664v2.887c0,3.972,1.468,6.293,5.415,8.567a.726.726,0,0,0,.719,0c3.947-2.268,5.415-4.59,5.415-8.567V34.891A.723.723,0,0,0,267.112,34.227Zm-1.006,3.552c0,3.334-1.1,5.169-4.331,7.1-3.228-1.939-4.331-3.774-4.331-7.1V35.368l4.331-1.857,4.331,1.857Z" transform="translate(-256 -32.004)"/></g><g transform="translate(14.438 4.271)"><path d="M325.516,128.173a.727.727,0,0,0-1.015.113l-2.27,2.838-.9-1.343a.722.722,0,0,0-1.2.8l1.444,2.166a.728.728,0,0,0,.57.322h.03a.722.722,0,0,0,.564-.271l2.888-3.609A.722.722,0,0,0,325.516,128.173Z" transform="translate(-320.011 -128.016)"/></g></g><g transform="translate(2147 2234.731)"><path d="M519.417-462.41q1.638,0,3.276,0a.962.962,0,0,0,1.083-.959.98.98,0,0,0-1.1-.951c-1.35,0-2.7,0-4.051,0a.948.948,0,0,1-1.052-.955.957.957,0,0,1,1.053-.959c.943,0,1.886,0,2.83,0a.955.955,0,0,0,1.026-.957.947.947,0,0,0-1.03-.951c-.953,0-1.906,0-2.859,0a.958.958,0,0,1-.951-.785.937.937,0,0,1,.61-1.067,1.676,1.676,0,0,1,.527-.062q3.068,0,6.135.013a.666.666,0,0,0,.5-.2c0,3.357.415,11.316.415,13.693-.236-.177-.188-.1-.483-.1-1.678.013-3.356.009-5.034.006a.955.955,0,0,1-.941-.643.893.893,0,0,1,.317-1.06,1.334,1.334,0,0,1,.661-.2c.8-.024,1.608,0,2.412-.012a.962.962,0,0,0,.977-.717.893.893,0,0,0-.4-1.029,1.576,1.576,0,0,0-.708-.16c-2.154-.012-4.309-.006-6.463-.009a1.886,1.886,0,0,1-.5-.052.927.927,0,0,1-.651-.928.919.919,0,0,1,.689-.9,1.835,1.835,0,0,1,.442-.047C517.233-462.411,518.325-462.41,519.417-462.41Z" transform="translate(-510.182 470.25)"/><path d="M421.878-466.621c.714,0,1.428,0,2.141,0a.963.963,0,0,1,1.075.967.974.974,0,0,1-1.067.951c-1.477,0-2.954,0-4.432,0a.957.957,0,0,1-.943-.72.926.926,0,0,1,.431-1.049,1.364,1.364,0,0,1,.594-.141C420.41-466.63,421.144-466.621,421.878-466.621Z" transform="translate(-418.621 466.805)"/><path d="M496.69-235.168c-.377,0-.753.006-1.13,0a.947.947,0,0,1-.958-.964.922.922,0,0,1,.934-.948q1.159-.017,2.319,0a.934.934,0,0,1,.933.953.954.954,0,0,1-.939.956C497.464-235.159,497.077-235.168,496.69-235.168Z" transform="translate(-490.796 248.771)"/><path d="M477.709-388.407c-.208,0-.417.008-.625,0a.957.957,0,0,1-.911-.926.955.955,0,0,1,.857-.977,12.378,12.378,0,0,1,1.339,0,.955.955,0,0,1,.866.969.951.951,0,0,1-.9.934C478.126-388.4,477.917-388.407,477.709-388.407Z" transform="translate(-473.288 394.333)"/></g></g></svg>