<svg xmlns="http://www.w3.org/2000/svg" width="16.3" height="16.302" viewBox="0 0 16.3 16.302"><defs><style>.a{stroke:#000;stroke-width:0.3px;}</style></defs><g transform="translate(-231.826 786.041)"><path class="a" d="M239.768-785.886h.042a.232.232,0,0,0,.106,0h.042c.353,0,.705.033,1.056.067.157.026.314.05.47.08.175.034.35.073.524.11a10.735,10.735,0,0,1,1.062.367l.4.176.015.011.021.008.559.305c.335.211.657.44.97.683.1.08.193.173.29.259a7.66,7.66,0,0,1,.716.732,7.979,7.979,0,0,1,1.408,2.35,7.671,7.671,0,0,1,.473,1.933,7.968,7.968,0,0,1-.91,4.735,7.934,7.934,0,0,1-.871,1.286c-.014.017-.026.035-.039.053-.106.116-.213.23-.317.347a6.522,6.522,0,0,1-.7.658,8.417,8.417,0,0,1-1,.713l-.626.339-.389.176q-.513.2-1.038.355c-.257.054-.512.119-.772.157-.3.045-.609.076-.915.091a8.655,8.655,0,0,1-1.406-.055,8.2,8.2,0,0,1-3.048-1.05,7.721,7.721,0,0,1-1.252-.924.385.385,0,0,1-.032-.589c.067-.075.138-.146.211-.215a.379.379,0,0,1,.509-.038l.084.057.016.013.017.013a3.446,3.446,0,0,0,.4.327,5.606,5.606,0,0,0,.786.515.87.87,0,0,0,.232.115l.113.059a4.69,4.69,0,0,0,.919.36,5.178,5.178,0,0,0,1.045.244l0,0,0,0,.028.011.106.008a.047.047,0,0,0,.045.011l.092.007a.11.11,0,0,0,.078.013l.129.006a.151.151,0,0,0,.1.011,3.3,3.3,0,0,0,.43.008c.009.008.018.011.027,0h0A5.445,5.445,0,0,0,241-771.06l.019-.008v0a5.28,5.28,0,0,0,1.016-.233c.089-.029.179-.054.267-.087a5.143,5.143,0,0,0,.714-.306l.038-.022a2.807,2.807,0,0,0,.374-.2,5.386,5.386,0,0,0,.718-.481,3.064,3.064,0,0,0,.395-.321,4.637,4.637,0,0,0,.609-.614,2.541,2.541,0,0,0,.336-.406l.014-.016.012-.018a5.858,5.858,0,0,0,.631-1.021,6.326,6.326,0,0,0,.49-1.26,6.731,6.731,0,0,0,.242-2.142,6.855,6.855,0,0,0-1.254-3.673c-.045-.064-.094-.125-.141-.188a3.1,3.1,0,0,0-.331-.4c-.141-.138-.263-.294-.406-.429a7.086,7.086,0,0,0-1.883-1.28,6.778,6.778,0,0,0-1.917-.56,6.889,6.889,0,0,0-1.8-.013,6.676,6.676,0,0,0-1.257.276,4.615,4.615,0,0,0-.887.353l-.021.007-.017.01a.112.112,0,0,0-.077.034,5.874,5.874,0,0,0-1.058.663,5.829,5.829,0,0,0-.946.858,3.247,3.247,0,0,0-.411.5,6.442,6.442,0,0,0-.625.98h.966c.682,0,1.364,0,2.046,0a.8.8,0,0,1,.4.08.461.461,0,0,1,.143.344,1.858,1.858,0,0,0,0,.206.436.436,0,0,1-.23.445l-.039.008-.024.01-.07.006-.035,0h-4.211a3.7,3.7,0,0,1-.581-.029.459.459,0,0,1-.231-.439c0-1.55,0-3.1,0-4.65a.422.422,0,0,1,.462-.3c.1.006.207,0,.311,0a.428.428,0,0,1,.324.454c-.008.954,0,1.909,0,2.863v.087c.035-.008.04-.035.052-.054a8.268,8.268,0,0,1,1.686-1.976c.023-.019.056-.032.056-.07a.134.134,0,0,0,.043-.014,9.731,9.731,0,0,1,.937-.665l.019-.009.018-.013.585-.318.415-.189c.344-.121.684-.255,1.037-.348.336-.086.677-.146,1.019-.2l.5-.041.271-.019Z" transform="translate(0)"/><path class="a" d="M630.218-614.835q-.751-.551-1.5-1.1a.121.121,0,0,1-.047-.114c0-.261,0-.522,0-.783,0-1.456,0-2.911,0-4.367a.412.412,0,0,1,.458-.455c.053,0,.107,0,.16,0a.381.381,0,0,1,.409.413q0,2.061,0,4.122c0,.173,0,.346,0,.519a.164.164,0,0,0,.078.155q1.089.787,2.174,1.579a.569.569,0,0,1,.173.171.383.383,0,0,1-.027.426c-.04.06-.084.118-.127.176a.391.391,0,0,1-.585.093c-.3-.215-.594-.433-.892-.649-.02-.015-.042-.026-.064-.04A1,1,0,0,0,630.218-614.835Z" transform="translate(-389.203 -161.135)"/></g></svg>