<svg xmlns="http://www.w3.org/2000/svg" width="15" height="20.007" viewBox="0 0 15 20.007"><g transform="translate(-1151.57 109.06)"><path d="M1166.569-101.552a6.421,6.421,0,0,1-.408,2.485,11.057,11.057,0,0,1-.927,1.779c-.894,1.449-1.9,2.824-2.87,4.22l-2,2.867c-.179.256-.356.513-.535.768a.944.944,0,0,1-1.513,0q-.985-1.408-1.964-2.821c-.882-1.269-1.784-2.524-2.647-3.807a21.106,21.106,0,0,1-1.474-2.442,6.189,6.189,0,0,1-.614-2.09,8.673,8.673,0,0,1-.034-1.391,7.345,7.345,0,0,1,1-3.334,7.416,7.416,0,0,1,1.211-1.568,7.462,7.462,0,0,1,2.568-1.667,7.526,7.526,0,0,1,1.877-.46,7.471,7.471,0,0,1,3.434.415,7.378,7.378,0,0,1,2.271,1.336,7.491,7.491,0,0,1,1.872,2.408,7.363,7.363,0,0,1,.691,2.259A6.478,6.478,0,0,1,1166.569-101.552Zm-13.2,2.505a9.54,9.54,0,0,0,.674,1.192l.027.042c.026.046.051.093.079.138.322.512.663,1.011,1.006,1.509.2.29.4.579.6.868.262.386.526.77.8,1.144a.318.318,0,0,0,.075.111q.6.856,1.193,1.712c.183.262.368.521.553.781.189.307.412.591.613.891.08.12.081.119.164,0,.555-.8,1.112-1.588,1.664-2.385.222-.321.464-.628.656-.969.062-.028.082-.09.115-.142.273-.388.548-.774.818-1.163s.552-.807.828-1.21c.3-.41.57-.834.836-1.263a.024.024,0,0,0,.008-.018,9.74,9.74,0,0,0,.7-1.239,4.9,4.9,0,0,0,.435-1.257,5.443,5.443,0,0,0,.1-1.234,5.905,5.905,0,0,0-.464-2.412,5.428,5.428,0,0,0-.77-1.341l-.016-.021a3.913,3.913,0,0,0-.387-.475,5.553,5.553,0,0,0-.853-.763,5.152,5.152,0,0,0-1.046-.643,5.272,5.272,0,0,0-1.445-.478,4.749,4.749,0,0,0-1.259-.127,4.851,4.851,0,0,0-1.259.126c-.045.007-.09.012-.135.022a5.946,5.946,0,0,0-1.64.627,4.4,4.4,0,0,0-.745.5,5.446,5.446,0,0,0-1.211,1.213l-.017.021a5.085,5.085,0,0,0-.71,1.215,5.043,5.043,0,0,0-.406,1.281,4.866,4.866,0,0,0-.119,1.234,5.449,5.449,0,0,0,.1,1.257A4.965,4.965,0,0,0,1153.365-99.047Z" transform="translate(0 0)"/><path d="M1319.28,54.9a4.181,4.181,0,0,1,1.355.263,3.77,3.77,0,0,1,1.582,1.176,4.086,4.086,0,0,1,.592,1.062,5.134,5.134,0,0,1,.182.78q.019.239.037.478a4.38,4.38,0,0,1-.128.948,3.7,3.7,0,0,1-1.128,1.853,3.979,3.979,0,0,1-1.26.754,6.326,6.326,0,0,1-.666.169l-.565.047c-.052-.005-.105-.013-.158-.015a3.657,3.657,0,0,1-1.036-.191,3.807,3.807,0,0,1-1.292-.751l-.322-.318-.126-.16a4.1,4.1,0,0,1-.6-1.078c-.032-.121-.058-.244-.1-.362a1.55,1.55,0,0,0-.083-.326l0-.045a.026.026,0,0,0,0-.046q-.016-.229-.031-.458a3.984,3.984,0,0,1,.209-1.233,3.73,3.73,0,0,1,2.387-2.359A4.055,4.055,0,0,1,1319.28,54.9Zm-2.145,2.5a2.334,2.334,0,0,0-.342,1.283,1.833,1.833,0,0,0,.026.375,2.272,2.272,0,0,0,.313.862,2.233,2.233,0,0,0,.892.9,2.379,2.379,0,0,0,1.257.35l.158-.01a2.387,2.387,0,0,0,1.776-.919,2.5,2.5,0,0,0,.035-3.109,2.123,2.123,0,0,0-.687-.6,2.3,2.3,0,0,0-1.282-.362,1.563,1.563,0,0,0-.374.022,2.375,2.375,0,0,0-.881.323A2.3,2.3,0,0,0,1317.135,57.4Z" transform="translate(-160.207 -160.215)"/></g></svg>