<svg xmlns="http://www.w3.org/2000/svg" width="26" height="20.607" viewBox="0 0 26 20.607"><defs><style>.a{fill:#a2a5ad;}</style></defs><g transform="translate(0 -53.1)"><path class="a" d="M25.538,55.32a1.94,1.94,0,0,0-1.328-.685L5.9,53.106a1.953,1.953,0,0,0-2.108,1.777L3.424,58.34H1.953A1.955,1.955,0,0,0,0,60.292V71.754a1.955,1.955,0,0,0,1.953,1.953H20.326a1.955,1.955,0,0,0,1.953-1.953V69.895l.652.054q.082.007.164.007a1.955,1.955,0,0,0,1.945-1.79l.954-11.422a1.94,1.94,0,0,0-.455-1.424ZM1.953,59.355H20.326a.938.938,0,0,1,.937.937v1.044H1.016V60.292a.938.938,0,0,1,.937-.937Zm-.937,3H21.263v2.107H1.016Zm19.31,10.339H1.953a.938.938,0,0,1-.937-.937V65.475H21.263v6.279a.938.938,0,0,1-.937.937Zm4.655-16.032-.954,11.422a.938.938,0,0,1-1.012.856l-.736-.061V60.292a1.955,1.955,0,0,0-1.953-1.953H4.445L4.8,54.986v-.012a.938.938,0,0,1,1.012-.856l18.31,1.529a.937.937,0,0,1,.856,1.012Z" transform="translate(0 0)"/><path class="a" d="M275.941,326.532h-4.81a.5.5,0,0,0-.5.5v3.138a.5.5,0,0,0,.5.5h4.81a.5.5,0,0,0,.5-.5v-3.138A.5.5,0,0,0,275.941,326.532Zm-.5,3.138h-3.811v-2.139h3.811Z" transform="translate(-256.824 -259.441)"/></g></svg>