<svg xmlns="http://www.w3.org/2000/svg" width="19.691" height="25" class="shopping-bag" viewBox="0 0 19.691 25">
                        <defs>
                            <style>
                                .a{fill:#fff;}
                            </style>
                        </defs>
                        <path class="a" d="M32.526,10.38H29.137V9.621a5.667,5.667,0,1,0-11.334,0v.759H14.413a.8.8,0,0,0-.813.813V26.812A2.089,2.089,0,0,0,15.688,28.9H31.2a2.089,2.089,0,0,0,2.088-2.088V11.167A.733.733,0,0,0,32.526,10.38Zm-13.1-.786a4.04,4.04,0,1,1,8.08,0v.759H19.43Zm11.8,17.679H15.715a.486.486,0,0,1-.488-.488V11.98H31.713v14.8A.486.486,0,0,1,31.225,27.273Z" transform="translate(-13.6 -3.9)" />
                    </svg>