<svg xmlns="http://www.w3.org/2000/svg" width="28.057" height="23.44" viewBox="0 0 28.057 23.44"><defs><style>.a{stroke:#000;stroke-width:0.3px;}</style></defs><g transform="translate(-6960.35 -2416.35)"><g transform="translate(6960.5 2416.5)"><path class="a" d="M2.459,29.122H3.8a3.039,3.039,0,0,0,5.988,0h9.178a3.039,3.039,0,0,0,5.988,0H26.3a1.964,1.964,0,0,0,1.959-1.959V20.728h0V20.42a.027.027,0,0,0-.028-.028v-.028a.027.027,0,0,0-.028-.028h0l-3.861-4a2,2,0,0,0-1.427-.644H16.2V10.459A1.964,1.964,0,0,0,14.239,8.5H2.459A1.964,1.964,0,0,0,.5,10.459V27.191a1.941,1.941,0,0,0,1.959,1.931Zm4.309,1.511a2.015,2.015,0,1,1,2.015-2.015,2.006,2.006,0,0,1-2.015,2.015Zm15.166,0a2.015,2.015,0,1,1,2.015-2.015,2.006,2.006,0,0,1-2.015,2.015Zm5.26-3.47a.961.961,0,0,1-.951.951H24.9a3.039,3.039,0,0,0-5.988,0H16.169V21.231h11v5.932ZM22.913,16.7a1,1,0,0,1,.7.308L26.55,20.2H16.2V16.7ZM1.507,10.459a.961.961,0,0,1,.951-.951H14.267a.961.961,0,0,1,.951.951V28.115H9.762a3.039,3.039,0,0,0-5.988,0H2.459a.961.961,0,0,1-.951-.951Zm0,0" transform="translate(-0.5 -8.5)"/><path class="a" d="M22.45,37.013a2.407,2.407,0,1,0-2.35-2.406,2.414,2.414,0,0,0,2.35,2.406Zm0-3.777a1.368,1.368,0,0,1,1.343,1.371,1.35,1.35,0,0,1-1.343,1.371,1.368,1.368,0,0,1-1.343-1.371,1.387,1.387,0,0,1,1.343-1.371Zm0,0" transform="translate(-14.616 -25.568)"/><path class="a" d="M12.634,32.71l3.078,3.274a.478.478,0,0,0,.728,0l3.078-3.274a5.354,5.354,0,0,0,1.091-1.735,4.633,4.633,0,0,0,.28-1.959A5.038,5.038,0,0,0,19.434,25.8a4.729,4.729,0,0,0-6.715,0,5.038,5.038,0,0,0-1.455,3.218,4.633,4.633,0,0,0,.28,1.959,5.354,5.354,0,0,0,1.091,1.735Zm-.364-3.638A3.936,3.936,0,0,1,13.446,26.5a3.783,3.783,0,0,1,5.316,0,4.074,4.074,0,0,1,1.175,2.574,4.03,4.03,0,0,1-.224,1.539,3.871,3.871,0,0,1-.9,1.4L16.1,34.893,13.39,32.011a3.871,3.871,0,0,1-.9-1.4,4.03,4.03,0,0,1-.224-1.539Zm0,0" transform="translate(-8.241 -19.951)"/></g></g></svg>