<svg id="Group_8814" data-name="Group 8814" xmlns="http://www.w3.org/2000/svg" width="32.5" height="32.5" viewBox="0 0 32.5 32.5">
  <path id="Path_9021" data-name="Path 9021" d="M905.639,232.714a11.687,11.687,0,0,0,11.767-11.767c0-.179,0-.358-.012-.535a8.41,8.41,0,0,0,2.063-2.142,8.28,8.28,0,0,1-2.375.651,4.151,4.151,0,0,0,1.819-2.288,8.287,8.287,0,0,1-2.626,1,4.14,4.14,0,0,0-7.048,3.771,11.741,11.741,0,0,1-8.524-4.321,4.138,4.138,0,0,0,1.28,5.521,4.1,4.1,0,0,1-1.873-.517c0,.017,0,.035,0,.053a4.138,4.138,0,0,0,3.318,4.055,4.142,4.142,0,0,1-1.868.071,4.14,4.14,0,0,0,3.863,2.872,8.3,8.3,0,0,1-5.136,1.77,8.407,8.407,0,0,1-.986-.057,11.707,11.707,0,0,0,6.34,1.858" transform="translate(-892.381 -208.105)" fill="#959595"/>
  <path id="Path_9022" data-name="Path 9022" d="M908.835,193.078H883.153a3.419,3.419,0,0,0-3.409,3.409v25.681a3.419,3.419,0,0,0,3.409,3.409h25.682a3.419,3.419,0,0,0,3.409-3.409V196.487A3.419,3.419,0,0,0,908.835,193.078Zm1.267,28.593a1.77,1.77,0,0,1-1.765,1.765H883.651a1.77,1.77,0,0,1-1.765-1.765V196.985a1.77,1.77,0,0,1,1.765-1.765h24.686a1.77,1.77,0,0,1,1.765,1.765Z" transform="translate(-879.744 -193.078)" fill="#959595"/>
</svg>
