<svg xmlns="http://www.w3.org/2000/svg" width="26.615" height="25" viewBox="0 0 26.615 25"><defs><style>.a{fill:#7e7e7e;fill-rule:evenodd;}</style></defs><path class="a" d="M94.756,247.792c.005-3.078,2.716-4.879,5.353-4.879a5.287,5.287,0,0,1,5.33,5.16c-.007,4.135.047,6.581.04,10.711-.006,3.659,2.23,5.547,5.414,5.347,4.584-.288,8.225-4.355,8.233-9.407l.011-8.333a3.126,3.126,0,0,0-6.228,0l-.018,12.393a6.411,6.411,0,0,1-1.3,4.333c-.848,1.011-2.2.435-2.13-.542a1.53,1.53,0,0,1,.454-.915,4.052,4.052,0,0,0,.737-2.877l.018-12.569c.005-3.079,2.716-4.88,5.354-4.88a5.211,5.211,0,0,1,5.341,5.059l.01,8.33a11.348,11.348,0,0,1-10.337,11.592c-4.375.275-7.806-2.467-7.8-7.532.007-4.071-.015-6.739-.007-10.815a3.126,3.126,0,0,0-6.229,0c0,2.718.02,4.032.015,6.755a9.718,9.718,0,0,0,2.086,6.02,11.35,11.35,0,0,0,4.783,3.175,1.31,1.31,0,0,1,.866,1.705c-.206.4-.656.689-1.585.377a12.786,12.786,0,0,1-5.845-3.93,11.869,11.869,0,0,1-2.549-7.347c0-2.782-.019-4.155-.015-6.932" transform="translate(-94.755 -241.335)"/></svg>