<svg xmlns="http://www.w3.org/2000/svg" width="21.78" height="25" viewBox="0 0 21.78 25"><defs><style>.a{fill:#000;}</style></defs><g transform="translate(-24.814 -22.475)"><path class="a" d="M41.016,34.732a5.654,5.654,0,1,1,5.652-5.654A5.659,5.659,0,0,1,41.016,34.732Zm0-9.755a4.1,4.1,0,1,0,4.1,4.1A4.1,4.1,0,0,0,41.016,24.977Z" transform="translate(-5.104 -0.949)"/><path class="a" d="M46.632,62.583H26.693a.921.921,0,0,1-.921-.921c0-6.138,5.089-11.522,10.89-11.522,5.9,0,10.89,5.276,10.89,11.522A.92.92,0,0,1,46.632,62.583ZM27.658,60.742H45.666c-.464-4.763-4.472-8.76-9-8.76S28.123,55.98,27.658,60.742Z" transform="translate(-0.958 -15.109)"/></g></svg>