<svg xmlns="http://www.w3.org/2000/svg" xmlns:xlink="http://www.w3.org/1999/xlink" width="32.5" height="32.5" viewBox="0 0 32.5 32.5">
  <defs>
    <style>
      .cls-1 {
        fill: #959595;
      }

      .cls-2 {
        clip-path: url(#clip-path);
      }
    </style>
    <clipPath id="clip-path">
      <rect id="Rectangle_776" data-name="Rectangle 776" class="cls-1" width="17.233" height="17.234"/>
    </clipPath>
  </defs>
  <g id="Group_8875" data-name="Group 8875" transform="translate(2340 546)">
    <path id="Path_9016" data-name="Path 9016" class="cls-1" d="M908.835,593.638H883.153a3.42,3.42,0,0,0-3.409,3.409v25.682a3.419,3.419,0,0,0,3.409,3.409h25.682a3.419,3.419,0,0,0,3.409-3.409V597.047A3.42,3.42,0,0,0,908.835,593.638Zm1.267,28.593A1.77,1.77,0,0,1,908.337,624H883.651a1.77,1.77,0,0,1-1.765-1.765V597.545a1.77,1.77,0,0,1,1.765-1.765h24.686a1.77,1.77,0,0,1,1.765,1.765Z" transform="translate(-3219.744 -1139.638)"/>
    <g id="Group_8874" data-name="Group 8874" transform="translate(-2332 -538)">
      <g id="Group_8874-2" data-name="Group 8874" class="cls-2">
        <path id="Path_9025" data-name="Path 9025" class="cls-1" d="M17.233,8.446a8.538,8.538,0,0,1-1.777,5.4,8.47,8.47,0,0,1-4.644,3.1,8.386,8.386,0,0,1-2.558.274A8.63,8.63,0,0,1,5,16.443a7.335,7.335,0,0,1-1-.549.292.292,0,0,0-.281-.035c-1,.322-1.994.638-2.991.956-.042.013-.091.051-.125.022s0-.092.016-.136c.319-.957.636-1.915.963-2.869a.3.3,0,0,0-.045-.3A8.3,8.3,0,0,1,.25,10.682,8.606,8.606,0,0,1,.016,8.1,8.4,8.4,0,0,1,1.7,3.482,8.335,8.335,0,0,1,6.794.2,8.377,8.377,0,0,1,14.119,2a8.42,8.42,0,0,1,2.944,4.91,8.512,8.512,0,0,1,.17,1.534m-5.75,5a1.778,1.778,0,0,0,.666-.11A2.045,2.045,0,0,0,13.81,11.2a.35.35,0,0,0-.211-.364c-.645-.312-1.28-.645-1.939-.929a.514.514,0,0,0-.729.2c-.165.22-.324.444-.494.66a.6.6,0,0,1-.884.23,6.834,6.834,0,0,1-3.286-2.92.374.374,0,0,1,.038-.479c.147-.17.291-.343.448-.5a.748.748,0,0,0,.157-1.012.347.347,0,0,1-.019-.047c-.261-.6-.487-1.216-.768-1.808a.35.35,0,0,0-.231-.228,1.484,1.484,0,0,0-1.317.2,2.689,2.689,0,0,0-.92,2.647A5.033,5.033,0,0,0,4.59,8.9a13.391,13.391,0,0,0,2.285,2.573A9.163,9.163,0,0,0,10.17,13.2a4.248,4.248,0,0,0,1.312.241" transform="translate(0 0)"/>
      </g>
    </g>
  </g>
</svg>
